<svg version="1.1" id="Layer_1" xmlns="http://www.w3.org/2000/svg" xmlns:xlink="http://www.w3.org/1999/xlink" x="0px" y="0px"
	 width="100%" viewBox="0 0 192 192" enable-background="new 0 0 192 192" xml:space="preserve">
<path fill="#000000" opacity="1.000000" stroke="none" 
	d="
M1.000000,111.399994 
	C5.958441,107.065971 6.082377,107.109863 10.309151,114.641266 
	C11.247360,112.311882 11.942983,110.180023 12.948640,108.206116 
	C13.883151,106.371841 15.533826,105.621384 17.573973,106.418594 
	C19.389574,107.128075 19.955616,108.591095 19.748684,110.449234 
	C19.509493,112.597031 19.217108,114.744026 19.107351,116.899498 
	C19.019835,118.618248 19.397615,119.913696 21.412214,120.761223 
	C26.279526,122.808846 27.448067,126.705528 24.820702,131.651367 
	C23.849705,133.479187 22.873816,134.898712 24.146326,137.106857 
	C28.784172,145.154755 46.697357,162.431030 55.959457,167.405869 
	C58.438976,165.698120 59.440220,162.778992 61.091278,160.358307 
	C62.853100,157.775253 62.402401,156.144821 59.644665,154.338608 
	C44.736580,144.574341 36.148323,130.658264 33.250351,113.136574 
	C31.393852,101.911819 34.606770,91.279915 37.351723,80.691231 
	C41.716976,63.852261 49.835285,49.168530 63.955441,38.393822 
	C65.881218,36.924313 66.817589,34.753799 68.445351,33.099407 
	C73.726074,27.732277 79.809013,24.576063 87.601463,25.932211 
	C88.082710,26.015965 88.813843,26.120251 89.063515,25.861967 
	C93.517128,21.254711 100.000031,21.973188 105.232063,19.589735 
	C110.489845,17.194550 120.510841,17.381758 124.897987,21.037304 
	C126.102707,22.041132 127.285202,22.701666 128.876770,22.825764 
	C143.646515,23.977398 156.345459,30.683641 168.365417,38.507050 
	C180.701859,46.536453 187.867081,58.719482 192.804596,72.707222 
	C193.000000,88.687561 193.000000,104.375122 192.804642,120.823547 
	C187.457687,136.266251 179.504059,149.009796 166.377319,158.570007 
	C174.430374,169.321838 182.335190,179.789764 185.000000,193.000000 
	C182.629440,193.000000 180.258896,193.000000 177.296753,192.665253 
	C173.654922,183.248932 168.786438,175.182053 163.218430,167.439377 
	C160.774200,164.040451 158.636215,163.080185 154.619156,165.219757 
	C144.473267,170.623642 133.442307,173.249756 121.974258,173.159515 
	C105.452843,173.029510 89.771080,168.696243 74.623352,162.376740 
	C71.611847,161.120361 69.859528,161.437744 68.084953,164.344223 
	C62.444050,173.583191 57.077068,182.946350 53.000000,193.000000 
	C50.629444,193.000000 48.258884,193.000000 45.425407,192.622940 
	C46.076157,189.294189 46.821697,186.127655 48.389709,183.441147 
	C50.745491,179.404938 50.342869,177.012344 46.245461,174.134323 
	C33.978214,165.517792 24.024128,154.601242 16.669888,141.466827 
	C15.278631,138.982101 13.585360,137.507538 10.796826,136.627350 
	C5.564179,134.975708 4.040375,131.444595 5.905881,126.121620 
	C6.501642,124.421692 6.785828,123.078033 5.545952,121.517731 
	C3.901228,119.447990 2.503732,117.181786 0.999999,115.000000 
	C1.000000,113.933327 1.000000,112.866661 1.000000,111.399994 
M130.074432,52.397751 
	C133.878159,48.327278 138.041183,44.516430 140.126892,39.139256 
	C132.445175,35.058544 131.397537,35.190998 126.402374,41.120174 
	C123.077698,45.066509 119.875450,49.115910 116.613182,53.114914 
	C115.215752,54.827938 113.784782,56.450951 111.081284,54.447792 
	C114.725121,48.038475 120.822823,43.578396 124.065933,36.938805 
	C115.653839,35.021923 113.996529,35.570969 109.596848,41.882832 
	C107.029778,45.565605 104.672569,49.394386 102.118912,53.086918 
	C101.006126,54.695976 99.810440,56.580185 96.591110,54.517868 
	C100.366096,48.643246 104.141624,42.767773 108.090424,36.622665 
	C96.861687,36.618710 88.854050,36.574867 84.798103,49.352097 
	C83.951317,52.019711 82.492790,54.529671 81.062782,56.963398 
	C80.026680,58.726734 79.083237,60.954998 75.535545,60.427242 
	C77.536690,52.801270 83.666061,46.838837 84.419807,38.877922 
	C80.486412,37.732029 78.460205,39.446667 76.848862,42.034477 
	C73.416656,47.546562 70.022339,53.082638 66.539284,58.562344 
	C65.695396,59.889988 64.763138,61.904564 62.732380,60.326969 
	C61.134216,59.085438 62.341125,57.676003 63.138493,56.382645 
	C65.539322,52.488400 67.886757,48.561234 70.255013,44.646904 
	C53.272587,57.638622 45.859100,75.715889 42.169262,95.924736 
	C38.313786,117.040741 47.218216,136.684982 65.439308,148.122452 
	C78.703056,156.448166 93.143303,160.960037 108.353447,163.596222 
	C127.290390,166.878342 145.232971,163.759247 160.633698,152.355316 
	C190.397018,130.316162 198.087234,87.429871 174.159637,55.409992 
	C173.309479,54.272308 172.759735,52.647827 170.651230,52.822086 
	C167.330673,56.249268 165.327469,61.484707 159.682510,62.577763 
	C158.141724,59.758900 159.997391,58.511395 161.512451,57.345886 
	C163.681915,55.676945 165.335007,53.642990 166.588379,51.256882 
	C168.799698,47.047112 164.808746,46.216232 162.726685,44.516476 
	C160.428741,42.640469 158.788025,43.764893 157.705307,46.182034 
	C156.671295,48.490440 155.293686,50.639587 153.337296,52.205246 
	C151.376816,53.774185 150.307404,58.788670 147.218399,56.099899 
	C144.480576,53.716793 149.068085,51.990261 150.360275,49.999001 
	C151.947922,47.552441 154.252945,45.544155 154.733078,42.468166 
	C147.449570,39.751106 145.038239,40.524719 140.977554,45.993904 
	C138.803375,48.922199 136.291245,51.639500 133.672531,54.185501 
	C131.475113,56.321892 130.740387,55.969597 130.074432,52.397751 
z"/>
<path fill="#000000" opacity="1.000000" stroke="none" 
	d="
M142.092957,96.147659 
	C142.189880,99.535332 140.866898,101.754677 138.130936,102.836861 
	C136.179047,103.608910 134.573746,102.563225 133.391479,100.981941 
	C131.625916,98.620468 131.462570,96.088127 132.819244,93.486717 
	C133.729065,91.742157 135.105515,90.544159 137.184967,90.788765 
	C140.068405,91.127953 141.427917,93.110680 142.092957,96.147659 
z"/>
<path fill="#000000" opacity="1.000000" stroke="none" 
	d="
M95.134354,101.138184 
	C94.572914,101.091194 94.401741,101.080208 94.250595,101.019424 
	C90.376480,99.461510 89.817635,96.431931 90.813141,92.879005 
	C91.438148,90.648384 92.870644,88.925224 95.403603,89.134567 
	C98.005150,89.349571 99.675262,91.029320 99.954178,93.624718 
	C100.330635,97.127708 99.951950,100.376831 95.134354,101.138184 
z"/>
<path fill="#000000" opacity="1.000000" stroke="none" 
	d="
M106.914711,135.282715 
	C111.912407,135.010468 116.525864,134.892197 121.140015,134.851196 
	C122.938118,134.835205 124.638428,135.461609 124.667168,137.501892 
	C124.696182,139.562256 123.003853,140.178650 121.201050,140.194275 
	C117.075363,140.230026 112.938690,140.380844 108.826546,140.140961 
	C105.775139,139.962921 103.703262,138.784821 106.914711,135.282715 
z"/>
</svg>